<?xml version="1.0" standalone="no"?>
<!DOCTYPE svg PUBLIC "-//W3C//DTD SVG 20010904//EN"
 "http://www.w3.org/TR/2001/REC-SVG-20010904/DTD/svg10.dtd">
<svg version="1.0" xmlns="http://www.w3.org/2000/svg"
 width="493.000000pt" height="493.000000pt" viewBox="0 0 493.000000 493.000000"
 preserveAspectRatio="xMidYMid meet">
<metadata>
Created by potrace 1.14, written by Peter Selinger 2001-2017
</metadata>
<g transform="translate(0.000000,493.000000) scale(0.100000,-0.100000)"
fill="#000000" stroke="none">
<path d="M2393 3072 c-34 -37 -85 -92 -115 -123 -45 -47 -105 -111 -307 -328
-18 -20 -66 -70 -105 -111 -39 -42 -103 -110 -143 -153 -39 -42 -75 -77 -80
-77 -4 1 -51 53 -103 116 -52 63 -102 123 -110 132 -8 9 -50 58 -92 109 l-77
92 -78 -93 c-43 -51 -94 -113 -115 -137 -20 -24 -46 -55 -58 -69 -12 -14 -83
-98 -158 -188 l-136 -162 -105 105 c-57 58 -107 105 -110 105 -3 0 -116 -111
-251 -245 l-245 -245 2453 0 c1348 0 2452 3 2452 8 0 4 -108 115 -240 246
l-240 239 -21 -19 c-12 -10 -60 -58 -108 -107 l-88 -87 -84 101 c-46 56 -89
107 -94 113 -6 6 -46 54 -90 106 -44 52 -82 97 -85 100 -3 3 -25 30 -50 60
-25 30 -47 57 -50 60 -3 3 -25 28 -48 57 l-43 52 -132 -157 c-73 -87 -157
-188 -187 -224 -30 -37 -59 -67 -65 -67 -5 -1 -19 11 -32 25 -12 14 -75 82
-140 151 -65 69 -131 140 -148 157 -16 18 -64 69 -105 112 -116 124 -301 322
-345 370 -23 24 -45 44 -50 44 -6 0 -38 -31 -72 -68z m102 -16 c11 -13 73 -79
137 -148 64 -68 129 -137 144 -154 15 -16 59 -63 98 -104 163 -173 326 -348
363 -389 32 -36 42 -41 51 -30 6 8 31 37 54 64 24 28 106 126 182 218 77 92
143 166 146 165 7 -3 175 -201 434 -511 54 -65 100 -117 102 -115 2 2 52 52
112 111 l108 108 205 -202 c112 -111 197 -199 189 -194 -20 12 -74 49 -80 55
-3 3 -21 17 -40 30 -19 13 -88 63 -152 111 l-118 88 -47 -35 c-27 -19 -59 -42
-73 -51 -14 -9 -40 -30 -58 -45 -18 -15 -36 -28 -41 -28 -4 0 -50 37 -102 81
-52 45 -118 102 -148 128 -30 25 -59 51 -65 56 -6 6 -60 52 -119 104 l-108 93
-57 -49 c-31 -26 -64 -55 -73 -63 -84 -77 -266 -230 -273 -230 -4 0 -30 18
-59 41 -29 22 -67 53 -86 67 -19 15 -60 47 -92 72 -31 25 -164 128 -295 230
-132 101 -240 188 -242 192 -11 25 -63 -7 -222 -135 -13 -11 -95 -75 -518
-403 -35 -27 -70 -53 -77 -58 -12 -9 -51 20 -210 159 -63 55 -82 72 -142 124
l-62 53 -228 -197 c-125 -109 -241 -209 -258 -224 -57 -51 -35 -59 -220 80
l-49 38 -66 -47 c-36 -25 -125 -90 -197 -144 -73 -54 -133 -95 -133 -93 0 3
89 93 197 201 l197 195 109 -110 c60 -61 111 -111 112 -111 2 0 58 66 126 148
68 81 125 149 128 152 5 4 58 67 123 145 85 103 152 180 158 183 3 1 69 -72
144 -163 76 -91 143 -171 149 -178 7 -6 32 -36 57 -66 l44 -53 44 48 c25 27
99 107 166 179 66 71 150 160 186 199 36 38 83 89 105 112 119 125 262 279
279 300 25 30 35 30 61 0z"/>
</g>
</svg>
